<svg width="70" height="36" viewBox="0 0 70 36" fill="none" xmlns="http://www.w3.org/2000/svg">
<g clip-path="url(#clip0_10202_65591)">
<path d="M67.2447 17.0816L67.2076 17.1188C67.4678 16.4126 67.9881 16.1524 68.4341 16.1524C69.066 16.1524 69.6235 16.6356 69.6235 17.3418C69.6235 17.4905 69.6235 17.6763 69.5492 17.8993C68.2483 21.2445 65.4978 22.9542 62.8217 23.2144C61.5952 25.2958 59.5881 26.8197 56.7261 26.8197C52.6376 26.8197 50.8164 23.5861 50.8164 20.0551C50.8164 15.7064 53.5669 10.8745 58.1757 10.8745C59.1792 10.8745 60.0341 11.0976 60.7403 11.3949C62.8217 12.1754 64.1598 14.8887 64.1598 17.7878C64.1598 18.717 64.0854 19.6462 63.8624 20.5383C65.2377 20.0551 66.5385 18.94 67.2447 17.0816ZM59.4766 13.9223V13.8852C58.6589 13.8852 58.1757 14.963 58.1757 16.2639C58.1757 18.1595 59.2164 19.9064 60.8518 20.5383C61.112 19.7206 61.2235 18.7914 61.2235 17.7135C61.2235 15.6321 60.5916 13.9223 59.4766 13.9223ZM56.7633 24.1064C57.804 24.1064 58.8447 23.6604 59.6624 22.7312C57.2465 21.6533 55.7226 19.1259 55.7226 16.7099C55.7226 15.8922 55.8713 15.0374 56.0943 14.294C54.6076 15.5206 53.7527 17.9365 53.7527 20.0551C53.7527 22.8055 55.0536 24.1064 56.7633 24.1064Z" fill="black"/>
<path d="M51.3903 17.0816L51.3531 17.1188C51.6133 16.4126 52.0593 16.1153 52.5053 16.1153C53.1372 16.1153 53.769 16.6728 53.769 17.379C53.769 17.5648 53.7319 17.7135 53.6575 17.8993C52.208 21.4303 50.0522 25.556 46.5956 27.9719L46.5213 28.7153C46.1124 33.1755 43.8452 36.0002 40.9832 36.0002C38.8274 36.0002 37.5637 34.5135 37.5637 32.7666C37.5637 29.6073 40.7973 28.4551 43.808 26.5224C43.8823 25.7418 43.9195 24.8498 43.9566 23.8462C42.4699 25.4816 40.8717 26.1507 39.4593 26.1507C36.6345 26.1507 34.3301 23.8462 34.3301 20.3153C34.3301 14.8887 37.8982 11.3206 41.8752 11.3206H41.9124C44.6257 11.3206 47.5248 12.7701 47.5248 15.3719C47.5248 16.2268 47.1531 20.8728 46.8558 24.4781C48.8628 22.5825 50.5354 19.4976 51.3903 17.0816ZM39.8681 23.4746C41.2434 23.4746 43.1018 22.6197 44.254 18.4197C44.4398 17.4905 44.5513 16.6728 44.5142 15.7064C44.2912 14.7029 43.4363 14.1082 42.2097 14.1082C39.6823 14.1082 37.2664 16.5241 37.2664 20.2038C37.2664 22.4339 38.3071 23.4746 39.8681 23.4746ZM41.2805 33.287H41.3177C42.0982 33.287 42.9531 32.7666 43.5106 29.4215C41.8752 30.3878 40.3513 31.3542 40.3513 32.5064C40.3513 32.9896 40.723 33.287 41.2805 33.287Z" fill="black"/>
<path d="M34.982 17.0816L34.9449 17.1188C35.205 16.4126 35.7254 16.1524 36.1714 16.1524C36.8033 16.1524 37.3608 16.6356 37.3608 17.3418C37.3608 17.4905 37.3608 17.6763 37.2865 17.8993C35.9856 21.2445 33.2351 22.9542 30.559 23.2144C29.3325 25.2958 27.3254 26.8197 24.4634 26.8197C20.3749 26.8197 18.5537 23.5861 18.5537 20.0551C18.5537 15.7064 21.3041 10.8745 25.913 10.8745C26.9165 10.8745 27.7714 11.0976 28.4776 11.3949C30.559 12.1754 31.8971 14.8887 31.8971 17.7878C31.8971 18.717 31.8227 19.6462 31.5997 20.5383C32.975 20.0551 34.2758 18.94 34.982 17.0816ZM27.2139 13.9223V13.8852C26.3962 13.8852 25.913 14.963 25.913 16.2639C25.913 18.1595 26.9537 19.9064 28.5891 20.5383C28.8493 19.7206 28.9608 18.7914 28.9608 17.7135C28.9608 15.6321 28.3289 13.9223 27.2139 13.9223ZM24.5006 24.1064C25.5413 24.1064 26.582 23.6604 27.3997 22.7312C24.9838 21.6533 23.4599 19.1259 23.4599 16.7099C23.4599 15.8922 23.6086 15.0374 23.8316 14.294C22.3449 15.5206 21.49 17.9365 21.49 20.0551C21.49 22.8055 22.7909 24.1064 24.5006 24.1064Z" fill="black"/>
<path d="M20.4429 15.9083C19.9225 15.9083 19.4765 16.1685 19.1791 16.8747C18.2128 19.3278 16.2056 23.4907 14.1613 23.4907C12.8741 23.4907 11.878 23.1996 10.8714 22.9054C9.84348 22.605 8.80467 22.3013 7.43378 22.3013C6.95058 22.3013 6.28154 22.3757 5.64967 22.4872C7.55325 19.8914 8.26439 16.7477 8.95347 10.8054C7.65601 10.7228 6.6006 10.4831 5.83132 10.241C5.00967 17.7775 4.07661 20.6511 0.669037 23.4907C0.22301 23.8624 0 24.3828 0 24.9032C0 25.7209 0.706212 26.4271 1.59827 26.4271C1.89562 26.4271 2.23013 26.3156 2.56465 26.1669C4.46027 25.312 5.6125 25.089 7.02492 25.089C7.92309 25.089 8.99783 25.3459 10.1485 25.6208C11.4739 25.9376 12.9 26.2784 14.2729 26.2784C17.2835 26.2784 19.2535 23.3421 21.4464 17.6552C21.558 17.4694 21.5951 17.2464 21.5951 17.0605C21.5951 16.3543 21.0376 15.9083 20.4429 15.9083Z" fill="black"/>
<path fill-rule="evenodd" clip-rule="evenodd" d="M6.02015 8.70287C6.69324 8.93784 7.74406 9.2114 9.10649 9.29233L9.3295 9.29222C13.5296 9.29222 16.2801 6.6904 16.2801 3.56821C16.2801 1.56109 14.719 0 12.526 0C9.58968 0 7.5454 2.00712 6.50467 5.98419C5.20376 5.27798 4.31171 4.01424 3.86568 2.41598C3.64266 1.63543 3.15947 1.15223 2.49042 1.15223C1.67271 1.15223 1.15234 1.78411 1.15234 2.63899C1.15234 5.16648 3.1223 7.58245 6.02147 8.69752L6.02015 8.70287ZM9.55251 6.57889C10.11 4.01424 11.0021 2.78767 12.1915 2.78767C12.8234 2.78767 13.2322 3.15936 13.2322 3.8284C13.2322 5.05497 11.9313 6.50455 9.55251 6.57889Z" fill="black"/>
</g>
<defs>
<clipPath id="clip0_10202_65591">
<rect width="70" height="36" fill="white"/>
</clipPath>
</defs>
</svg>
